<?xml version="1.0" encoding="UTF-8" standalone="no"?>
<!-- Created with Inkscape (http://www.inkscape.org/) -->

<svg
   width="1000"
   height="1000"
   viewBox="0 0 1000 1000"
   version="1.1"
   id="svg1"
   inkscape:version="1.4.3 (0d15f75042, 2025-12-25)"
   sodipodi:docname="favicon.svg"
   inkscape:export-filename="carton_logo_projekt_final.png"
   inkscape:export-xdpi="103.68"
   inkscape:export-ydpi="103.68"
   xmlns:inkscape="http://www.inkscape.org/namespaces/inkscape"
   xmlns:sodipodi="http://sodipodi.sourceforge.net/DTD/sodipodi-0.dtd"
   xmlns="http://www.w3.org/2000/svg"
   xmlns:svg="http://www.w3.org/2000/svg">
  <sodipodi:namedview
     id="namedview1"
     pagecolor="#ffffff"
     bordercolor="#cccccc"
     borderopacity="1"
     inkscape:showpageshadow="0"
     inkscape:pageopacity="1"
     inkscape:pagecheckerboard="0"
     inkscape:deskcolor="#d1d1d1"
     inkscape:document-units="mm"
     showgrid="false"
     inkscape:zoom="0.49"
     inkscape:cx="500"
     inkscape:cy="500"
     inkscape:window-width="1366"
     inkscape:window-height="708"
     inkscape:window-x="0"
     inkscape:window-y="0"
     inkscape:window-maximized="1"
     inkscape:current-layer="layer1"
     inkscape:export-bgcolor="#ffffffff">
    <inkscape:grid
       type="axonomgrid"
       id="grid1"
       units="px"
       originx="0"
       originy="0"
       spacingx="3.7795276"
       spacingy="10"
       empcolor="#0099e5"
       empopacity="0.30196078"
       color="#0099e5"
       opacity="0.14901961"
       empspacing="5"
       dotted="false"
       gridanglex="20"
       gridanglez="20"
       enabled="true"
       visible="false" />
  </sodipodi:namedview>
  <defs
     id="defs1" />
  <g
     inkscape:label="Layer 1"
     inkscape:groupmode="layer"
     id="layer1">
    <g
       id="g5"
       transform="matrix(1.1757306,0,0,1.1757306,-65.301271,-205.43829)">
      <g
         id="path2"
         style="opacity:1">
        <path
           style="font-variation-settings:'opsz' 32, 'wght' 700;baseline-shift:baseline;display:inline;overflow:visible;vector-effect:none;fill:#a37231;stroke-linecap:round;stroke-linejoin:round;enable-background:accumulate;stop-color:#000000;stop-opacity:1"
           d="M 137.37387,800 V 400 L 480.80855,275 v 400 z"
           id="path1" />
        <path
           style="font-variation-settings:'opsz' 32, 'wght' 700;baseline-shift:baseline;display:inline;overflow:visible;vector-effect:none;fill:#4b3313;stroke-linecap:round;stroke-linejoin:round;enable-background:accumulate;stop-color:#000000;stop-opacity:1"
           d="m 485.10937,260.63086 a 15.0015,15.0015 0 0 0 -9.43164,0.27344 l -343.43359,125 A 15.0015,15.0015 0 0 0 122.37305,400 v 400 a 15.0015,15.0015 0 0 0 20.13086,14.0957 l 343.43554,-125 A 15.0015,15.0015 0 0 0 495.80859,675 V 275 a 15.0015,15.0015 0 0 0 -10.69922,-14.36914 z m -19.30078,35.79101 V 664.49609 L 152.37305,778.57812 V 410.50391 Z"
           id="path6" />
      </g>
      <g
         id="path3"
         style="opacity:1">
        <path
           style="font-variation-settings:'opsz' 32, 'wght' 700;baseline-shift:baseline;display:inline;overflow:visible;vector-effect:none;fill:#c28b3f;stroke-linecap:round;stroke-linejoin:round;enable-background:accumulate;stop-color:#000000;stop-opacity:1"
           d="M 480.80855,675 824.24323,800 V 400 L 480.80855,275 Z"
           id="path7" />
        <path
           style="font-variation-settings:'opsz' 32, 'wght' 700;baseline-shift:baseline;display:inline;overflow:visible;vector-effect:none;fill:#4b3313;stroke-linecap:round;stroke-linejoin:round;enable-background:accumulate;stop-color:#000000;stop-opacity:1"
           d="M 476.50781,260.63086 A 15.0015,15.0015 0 0 0 465.80859,275 v 400 a 15.0015,15.0015 0 0 0 9.86914,14.0957 l 343.43555,125 A 15.0015,15.0015 0 0 0 839.24414,800 V 400 a 15.0015,15.0015 0 0 0 -9.87109,-14.0957 l -343.4336,-125 a 15.0015,15.0015 0 0 0 -9.43164,-0.27344 z m 19.30078,35.79101 313.43555,114.08204 V 778.57812 L 495.80859,664.49609 Z"
           id="path8" />
      </g>
      <g
         id="path2-1"
         style="opacity:1">
        <path
           style="font-variation-settings:'opsz' 32, 'wght' 700;baseline-shift:baseline;display:inline;overflow:visible;vector-effect:none;fill:#e0a34e;stroke-linecap:round;stroke-linejoin:round;enable-background:accumulate;stop-color:#000000;stop-opacity:1"
           d="M 480.80855,925 V 525 L 824.24323,400 v 400 z"
           id="path9" />
        <path
           style="font-variation-settings:'opsz' 32, 'wght' 700;baseline-shift:baseline;display:inline;overflow:visible;vector-effect:none;fill:#4b3313;stroke-linecap:round;stroke-linejoin:round;enable-background:accumulate;stop-color:#000000;stop-opacity:1"
           d="m 828.54492,385.63086 a 15.0015,15.0015 0 0 0 -9.43164,0.27344 l -343.43555,125 A 15.0015,15.0015 0 0 0 465.80859,525 v 400 a 15.0015,15.0015 0 0 0 20.13086,14.0957 l 343.4336,-125 A 15.0015,15.0015 0 0 0 839.24414,800 V 400 a 15.0015,15.0015 0 0 0 -10.69922,-14.36914 z m -19.30078,35.79101 V 789.49609 L 495.80859,903.57812 V 535.50391 Z"
           id="path10" />
      </g>
      <g
         id="path3-3"
         style="opacity:1">
        <path
           style="font-variation-settings:'opsz' 32, 'wght' 700;baseline-shift:baseline;display:inline;overflow:visible;vector-effect:none;fill:#ffbb5c;stroke-linecap:round;stroke-linejoin:round;enable-background:accumulate;stop-color:#000000;stop-opacity:1"
           d="M 137.37387,800 480.80855,925 V 525 L 137.37387,400 Z"
           id="path11" />
        <path
           style="font-variation-settings:'opsz' 32, 'wght' 700;baseline-shift:baseline;display:inline;overflow:visible;vector-effect:none;fill:#4b3313;stroke-linecap:round;stroke-linejoin:round;enable-background:accumulate;stop-color:#000000;stop-opacity:1"
           d="M 133.07227,385.63086 A 15.0015,15.0015 0 0 0 122.37305,400 v 400 a 15.0015,15.0015 0 0 0 9.87109,14.0957 l 343.43359,125 A 15.0015,15.0015 0 0 0 495.80859,925 V 525 a 15.0015,15.0015 0 0 0 -9.86914,-14.0957 l -343.43554,-125 a 15.0015,15.0015 0 0 0 -9.43164,-0.27344 z m 19.30078,35.79101 313.43554,114.08204 V 903.57812 L 152.37305,789.49609 Z"
           id="path12" />
      </g>
      <g
         id="path4"
         style="opacity:1">
        <path
           style="font-variation-settings:'opsz' 32, 'wght' 700;baseline-shift:baseline;display:inline;overflow:visible;vector-effect:none;fill:#ffbb5c;stroke-linecap:round;stroke-linejoin:round;enable-background:accumulate;stop-color:#000000;stop-opacity:1"
           d="M 137.37387,400 68.686939,525 412.12161,650 480.80855,525 Z"
           id="path13" />
        <path
           style="font-variation-settings:'opsz' 32, 'wght' 700;baseline-shift:baseline;display:inline;overflow:visible;vector-effect:none;fill:#4b3313;stroke-linecap:round;stroke-linejoin:round;enable-background:accumulate;stop-color:#000000;stop-opacity:1"
           d="m 142.50391,385.9043 a 15.0015,15.0015 0 0 0 -18.27539,6.87109 l -68.687504,125 a 15.0015,15.0015 0 0 0 8.015625,21.32031 l 343.435549,125 a 15.0015,15.0015 0 0 0 18.27539,-6.87109 l 68.6875,-125 a 15.0015,15.0015 0 0 0 -8.01563,-21.32031 z m 1.82421,32.58984 314.90625,114.61719 -54.0664,98.39453 L 90.259766,516.88867 Z"
           id="path14" />
      </g>
      <g
         id="path5"
         style="opacity:1">
        <path
           style="font-variation-settings:'opsz' 32, 'wght' 700;baseline-shift:baseline;display:inline;overflow:visible;vector-effect:none;fill:#ffbb5c;stroke-linecap:round;stroke-linejoin:round;enable-background:accumulate;stop-color:#000000;stop-opacity:1"
           d="M 480.80855,525 824.24323,400 892.93016,525 549.49548,650 Z"
           id="path15" />
        <path
           style="font-variation-settings:'opsz' 32, 'wght' 700;baseline-shift:baseline;display:inline;overflow:visible;vector-effect:none;fill:#4b3313;stroke-linecap:round;stroke-linejoin:round;enable-background:accumulate;stop-color:#000000;stop-opacity:1"
           d="m 819.11328,385.9043 -343.43555,125 a 15.0015,15.0015 0 0 0 -8.01562,21.32031 l 68.6875,125 a 15.0015,15.0015 0 0 0 18.27539,6.87109 l 343.43555,-125 a 15.0015,15.0015 0 0 0 8.01562,-21.32031 l -68.6875,-125 a 15.0015,15.0015 0 0 0 -18.27539,-6.87109 z m -1.82422,32.58984 54.06836,98.39453 -314.9082,114.61719 -54.06641,-98.39453 z"
           id="path16" />
      </g>
    </g>
  </g>
</svg>
